HIERARCHY
ROOT Hips
{
	OFFSET 0.000000 0.000000 0.000000 
	CHANNELS 6 Xposition Yposition Zposition Zrotation Yrotation Xrotation
	JOINT LeftUpLeg
	{
		OFFSET 1.363060 -1.794630 0.839290 
		CHANNELS 3 Zrotation Yrotation Xrotation
		JOINT LeftLeg
		{
			OFFSET 2.448110 -6.726130 0.000000 
			CHANNELS 3 Zrotation Yrotation Xrotation
			JOINT LeftFoot
			{
				OFFSET 2.562200 -7.039590 0.000000 
				CHANNELS 3 Zrotation Yrotation Xrotation
				JOINT LeftToeBase
				{
					OFFSET 0.157640 -0.433110 2.322550 
					CHANNELS 3 Zrotation Yrotation Xrotation
					End Site
					{
						OFFSET 0.000000 0.000000 0.000000 
					}
				}
			}
		}
	}
	JOINT RightUpLeg
	{
		OFFSET -1.305520 -1.794630 0.839290 
		CHANNELS 3 Zrotation Yrotation Xrotation
		JOINT RightLeg
		{
			OFFSET -2.542530 -6.985550 0.000000 
			CHANNELS 3 Zrotation Yrotation Xrotation
			JOINT RightFoot
			{
				OFFSET -2.568260 -7.056230 0.000000 
				CHANNELS 3 Zrotation Yrotation Xrotation
				JOINT RightToeBase
				{
					OFFSET -0.164730 -0.452590 2.363150 
					CHANNELS 3 Zrotation Yrotation Xrotation
					End Site
					{
						OFFSET 0.000000 0.000000 0.000000 
					}
				}
			}
		}
	}
	JOINT Spine
	{
		OFFSET 0.028270 2.035590 -0.193380 
		CHANNELS 3 Zrotation Yrotation Xrotation
		JOINT Spine1
		{
			OFFSET 0.056720 2.048850 -0.042750 
			CHANNELS 3 Zrotation Yrotation Xrotation
			JOINT Neck1
			{
				OFFSET -0.054170 1.746240 0.172020 
				CHANNELS 3 Zrotation Yrotation Xrotation
				JOINT Head
				{
					OFFSET 0.104070 1.761360 -0.123970 
					CHANNELS 3 Zrotation Yrotation Xrotation
					End Site
					{
						OFFSET 0.000000 0.000000 0.000000 
					}
				}
			}
			JOINT LeftArm
			{
				OFFSET 3.362410 1.200890 -0.311210 
				CHANNELS 3 Zrotation Yrotation Xrotation
				JOINT LeftForeArm
				{
					OFFSET 4.983000 -0.000000 -0.000000 
					CHANNELS 3 Zrotation Yrotation Xrotation
					JOINT LeftHand
					{
						OFFSET 3.483560 -0.000000 -0.000000 
						CHANNELS 3 Zrotation Yrotation Xrotation
						JOINT LeftHandIndex1
						{
							OFFSET 0.715260 -0.000000 -0.000000 
							CHANNELS 3 Zrotation Yrotation Xrotation
							End Site
							{
								OFFSET 0.000000 0.000000 0.000000 
							}
						}
					}
				}
			}
			JOINT RightArm
			{
				OFFSET -3.136600 1.374050 -0.404650 
				CHANNELS 3 Zrotation Yrotation Xrotation
				JOINT RightForeArm
				{
					OFFSET -5.241900 -0.000000 -0.000000 
					CHANNELS 3 Zrotation Yrotation Xrotation
					JOINT RightHand
					{
						OFFSET -3.444170 -0.000000 -0.000000 
						CHANNELS 3 Zrotation Yrotation Xrotation
						JOINT RightHandIndex1
						{
							OFFSET -0.622530 -0.000000 -0.000000 
							CHANNELS 3 Zrotation Yrotation Xrotation
							End Site
							{
								OFFSET 0.000000 0.000000 0.000000 
							}
						}
					}
				}
			}
		}
	}
}
MOTION
Frames: 10
Frame Time: 0.041667
19.613474 17.740661 1.374988 105.726607 -85.089844 -102.210738 -8.088396 -0.326940 -16.809370 2.356799 13.355331 34.171155 -6.106315 16.869407 0.478799 2.188800 -9.248700 -26.576500 -4.801788 4.191542 -15.155434 -3.148800 -13.147567 35.962831 4.169516 -13.539313 -6.014054 -0.176600 -2.707100 7.464400 -0.589174 0.560717 -0.751090 1.591523 -0.158502 5.786042 1.454515 1.469309 18.550466 1.041000 0.533400 5.308300 -62.050397 -6.167830 25.696266 23.913363 -34.746292 -11.661384 -0.002094 1.627720 8.966712 -7.125000 0.000000 0.000000 65.636558 -0.767431 33.043149 -25.144870 36.792629 -11.079591 1.720613 2.416303 -15.201056 7.125000 0.000000 0.000000 
19.609716 17.744750 1.354761 111.353654 -85.855284 -107.434045 -7.054915 -0.497776 -17.174058 2.482031 13.411224 34.494103 -6.214209 17.025876 0.283702 2.190100 -9.251300 -26.584700 -3.899879 5.165080 -15.206294 -2.967139 -13.074781 35.498214 4.384466 -14.032027 -5.646618 -0.184800 -2.769100 7.636500 -0.483051 0.623481 -0.881180 1.232843 -0.064719 5.757088 1.685525 1.512610 18.672050 1.177300 0.548300 5.377900 -61.928581 -6.022492 25.896867 24.223790 -35.000594 -11.834250 0.002099 1.608731 8.575986 -7.125000 0.000000 0.000000 65.664708 -0.694695 32.869280 -25.134796 36.776003 -11.085531 2.148936 2.035538 -13.605551 7.125000 0.000000 0.000000 
19.602974 17.746077 1.330223 120.952681 -86.807022 -116.755956 -5.732898 -0.506001 -17.451479 2.613746 13.451238 34.767324 -6.209721 17.000399 0.353935 2.202600 -9.276000 -26.662500 -2.674723 6.234882 -15.064003 -2.784935 -13.038755 35.126643 4.750230 -14.885431 -5.618723 -0.192300 -2.823800 7.788600 -0.362746 0.754831 -0.972665 0.734743 0.077212 5.743287 1.749673 1.464070 18.548641 1.220200 0.525500 5.314500 -61.759340 -6.034519 26.230052 24.397009 -35.133816 -11.921394 -0.005235 1.600726 8.423939 -7.125000 0.000000 0.000000 65.763841 -0.678168 32.471687 -25.207310 36.863155 -11.208369 2.444275 1.627398 -12.140235 7.125000 0.000000 0.000000 
19.592363 17.752708 1.300823 137.385449 -87.408666 -132.901653 -4.572105 -0.653024 -17.618982 2.710867 13.507650 34.992951 -6.187292 16.931997 0.251341 2.173400 -9.218200 -26.480400 -1.584826 7.263695 -14.775646 -2.613456 -12.997560 34.845686 5.247701 -16.038279 -6.630176 -0.145000 -2.453700 6.761400 -0.250603 0.928765 -0.989131 0.359683 0.230462 6.033297 1.703646 1.404829 18.360003 1.195300 0.504400 5.215900 -61.650030 -6.225788 26.285260 24.495025 -35.197319 -11.978331 0.004141 1.596200 8.708121 -7.125000 0.000000 0.000000 65.824014 -0.455120 31.480262 -25.112636 36.807511 -11.281159 2.612230 1.305439 -8.800564 7.125000 0.000000 0.000000 
19.586063 17.751824 1.269432 152.295686 -87.643836 -147.648538 -3.846488 -0.745241 -17.744833 2.781059 13.556570 35.161113 -6.181932 16.911540 0.217230 2.171100 -9.213600 -26.466000 -0.884065 8.175396 -14.478749 -2.497114 -12.964331 34.639658 5.621355 -16.921757 -7.297055 -0.117900 -2.213700 6.096500 -0.192943 1.052344 -1.028504 0.100038 0.346122 6.134689 1.734718 1.385696 18.274056 1.212400 0.498800 5.173100 -61.553410 -6.282674 26.394994 24.660954 -35.324145 -12.074667 0.012841 1.587085 8.826412 -7.125000 0.000000 0.000000 65.880935 -0.280268 30.653914 -24.941486 36.670299 -11.261494 2.689411 1.092417 -5.724156 7.125000 0.000000 0.000000 
19.581310 17.749171 1.233952 162.042577 -87.756386 -157.316566 -3.403639 -0.842446 -17.762969 2.825135 13.574066 35.254651 -6.183013 16.907840 0.210908 2.177700 -9.226800 -26.507400 -0.436067 8.941149 -14.162804 -2.411197 -12.968695 34.529984 5.961428 -17.741839 -8.086256 -0.087200 -1.904700 5.242300 -0.167921 1.135722 -1.050871 -0.064191 0.413716 6.215376 1.718445 1.372643 18.207514 1.200700 0.496700 5.145400 -61.486324 -6.344889 26.448477 24.818277 -35.443715 -12.169759 0.025470 1.578249 9.014924 -7.125000 0.000000 0.000000 65.929842 -0.068000 29.845754 -24.717411 36.463765 -11.172122 2.724639 0.950329 -2.651546 7.125000 0.000000 0.000000 
19.578657 17.745413 1.195377 165.223110 -87.833201 -160.483924 -3.179267 -0.939364 -17.716066 2.844437 13.575388 35.282367 -6.207423 16.952437 0.221467 2.199900 -9.270600 -26.645500 -0.190951 9.521311 -13.873093 -2.357581 -12.991524 34.503747 6.229023 -18.400987 -8.841933 -0.058800 -1.565200 4.305500 -0.167644 1.184017 -1.062628 -0.156718 0.446078 6.268498 1.678582 1.368779 18.168941 1.176100 0.498400 5.137400 -61.456520 -6.403887 26.428318 24.964431 -35.553170 -12.261310 0.042617 1.569494 9.233446 -7.125000 0.000000 0.000000 65.966956 0.175039 29.219223 -24.479288 36.226326 -11.035090 2.733653 0.856246 -0.074695 7.125000 0.000000 0.000000 
19.577662 17.740771 1.155255 162.997712 -87.905867 -158.308974 -3.107342 -1.031717 -17.619940 2.843939 13.572677 35.261106 -6.253696 17.043593 0.246835 2.239700 -9.348500 -26.891700 -0.086463 9.850141 -13.638148 -2.337213 -13.018746 34.542604 6.400661 -18.833145 -9.407752 -0.036000 -1.225100 3.368300 -0.183158 1.200615 -1.064056 -0.204080 0.454680 6.293613 1.625536 1.386051 18.146661 1.146700 0.509600 5.143100 -61.469820 -6.455998 26.334514 25.091246 -35.645999 -12.343528 0.062750 1.561214 9.458776 -7.125000 0.000000 0.000000 65.988855 0.434042 28.870322 -24.265393 35.999419 -10.879619 2.724109 0.806403 1.722691 7.125000 0.000000 0.000000 
19.577773 17.736461 1.115686 162.938315 -88.048523 -158.313704 -2.957536 -1.137124 -17.501633 2.842929 13.556814 35.210194 -6.313985 17.162666 0.307152 2.290500 -9.446600 -27.202500 0.086023 9.880721 -13.533719 -2.334904 -13.054570 34.618096 6.474740 -19.033291 -9.701944 -0.019400 -0.899800 2.473300 -0.180951 1.182861 -1.059338 -0.273566 0.449137 6.316949 1.555211 1.409518 18.097867 1.112500 0.523000 5.137200 -61.532373 -6.511284 26.180154 25.188697 -35.713156 -12.407488 0.083888 1.554052 9.674746 -7.125000 0.000000 0.000000 65.982735 0.705266 28.775265 -24.087276 35.808825 -10.739798 2.714118 0.754475 2.754836 7.125000 0.000000 0.000000 
19.578547 17.732924 1.077774 164.660913 -88.257090 -160.114410 -2.757366 -1.263906 -17.361429 2.843039 13.534307 35.148965 -6.374518 17.282985 0.388512 2.343200 -9.547100 -27.522100 0.300671 9.564841 -13.566500 -2.350167 -13.091718 34.712851 6.452041 -18.994358 -9.692300 -0.008100 -0.582000 1.599200 -0.163814 1.130187 -1.049582 -0.361909 0.428747 6.337671 1.494819 1.442442 18.021417 1.087100 0.540800 5.116400 -61.652452 -6.561677 25.970296 25.257736 -35.756424 -12.453140 0.105102 1.547939 9.882111 -7.125000 0.000000 0.000000 65.951099 0.959405 28.959438 -23.982080 35.698239 -10.652776 2.713120 0.721136 2.908238 7.125000 0.000000 0.000000 
